<?xml version="1.0" encoding="UTF-8"?>
<svg version="1.1" xmlns="http://www.w3.org/2000/svg" width="639" height="1106">
<path d="M0 0 C1.89233398 0.07739258 1.89233398 0.07739258 4 1 C5.84399414 3.0534668 5.84399414 3.0534668 7.72265625 5.76171875 C8.42148926 6.76380371 9.12032227 7.76588867 9.84033203 8.79833984 C13.0278885 13.52382205 16.18766404 18.26430388 19.29077148 23.04577637 C20.91649639 25.55047262 22.54907071 28.05068321 24.18106079 30.55130005 C25.06595474 31.90727769 25.95053159 33.26346232 26.83480835 34.61984253 C32.19897388 42.84582451 37.6000932 51.04745653 43 59.25 C44.05853777 60.8584631 45.1170499 62.46694308 46.17553711 64.07543945 C55.08297382 77.61048243 63.99544303 91.14221277 72.90771484 104.67407227 C80.48321441 116.17652864 88.055561 127.68105447 95.625 139.1875 C96.13774475 139.96692963 96.6504895 140.74635925 97.17877197 141.54940796 C101.29993195 147.81411886 105.42084595 154.07899154 109.54174805 160.34387207 C126.35295558 185.90132521 143.17358231 211.45255849 160 237 C163.97735818 243.03879729 167.95465025 249.07763811 171.93179321 255.11657715 C173.05804017 256.82664237 174.18432175 258.53668479 175.31063843 260.2467041 C181.44162357 269.55503184 187.56993218 278.86510168 193.69140625 288.1796875 C194.78563354 289.84432689 195.87987172 291.50895912 196.97412109 293.17358398 C198.56971135 295.60087965 200.16506082 298.02833158 201.75958252 300.45632935 C206.83360046 308.1824247 211.91599004 315.90143855 217.08203125 323.56640625 C217.46683151 324.13841263 217.85163177 324.71041901 218.24809265 325.29975891 C219.99020674 327.88870545 221.73783356 330.47350657 223.49682617 333.05102539 C224.38011597 334.35994751 224.38011597 334.35994751 225.28125 335.6953125 C225.78720703 336.43797363 226.29316406 337.18063477 226.81445312 337.94580078 C228.93314904 341.61686904 229.12491493 344.99715189 229.1241985 349.18398738 C229.12756944 350.7692131 229.12756944 350.7692131 229.13100848 352.38646358 C229.12838146 353.54873205 229.12575445 354.71100051 229.12304783 355.90848923 C229.12420167 357.14730577 229.12535552 358.38612231 229.12654433 359.66247874 C229.12874359 363.11821432 229.12643161 366.57389484 229.12226619 370.02962519 C229.11883909 373.78263389 229.12120144 377.53563955 229.12284368 381.28864884 C229.12492029 387.87185194 229.12326875 394.45504601 229.11920547 401.03824806 C229.11318024 410.82728953 229.11286876 420.61632528 229.11374746 430.40536826 C229.11506265 446.87062717 229.11171507 463.33588208 229.10573006 479.80113983 C229.09981744 496.10894541 229.095965 512.41674932 229.09487724 528.72455597 C229.0948085 529.73770051 229.09473976 530.75084504 229.09466894 531.79469093 C229.09433062 536.93972793 229.09402923 542.08476492 229.09374207 547.22980192 C229.09164044 583.6927532 229.08489968 620.1557023 229.07543945 656.61865234 C229.06625832 692.04671212 229.05917309 727.4747713 229.05493164 762.90283203 C229.05480011 763.9944608 229.05466859 765.08608957 229.05453308 766.21079799 C229.05321458 777.17316485 229.05193876 788.13553172 229.05069422 799.09789859 C229.04815786 821.4304391 229.0453366 843.76297957 229.04234314 866.09552002 C229.04220585 867.12238326 229.04206856 868.14924651 229.04192711 869.20722682 C229.03272306 937.80481879 229.0168567 1006.40240954 229 1075 C221.74 1075 214.48 1075 207 1075 C207 840.37 207 605.74 207 364 C199.41 367.3 191.82 370.6 184 374 C178.89045201 375.57216861 174.1815702 376.95640507 169 378 C167.91976563 378.22171875 166.83953125 378.4434375 165.7265625 378.671875 C135.5794143 384.0735432 107.74537554 374.70909602 83 358 C81.90945313 357.27296875 80.81890625 356.5459375 79.6953125 355.796875 C78.36113281 354.90742187 78.36113281 354.90742187 77 354 C76.30777344 354.556875 75.61554688 355.11375 74.90234375 355.6875 C48.03799711 376.64098249 16.09445041 381.85895114 -17.38452148 378.22631836 C-38.50310024 375.5793682 -57.92179597 368.22448168 -74 354 C-74.49886719 354.3403125 -74.99773437 354.680625 -75.51171875 355.03125 C-77.99494239 356.70753741 -80.49590428 358.35505009 -83 360 C-83.95519531 360.63808594 -84.91039062 361.27617187 -85.89453125 361.93359375 C-101.17946206 371.79670005 -119.61931261 379.27205198 -138 380 C-139.60488281 380.07734375 -139.60488281 380.07734375 -141.2421875 380.15625 C-164.276388 380.74062718 -182.90064226 373.37749233 -204 364 C-204 598.63 -204 833.26 -204 1075 C-210.93 1075 -217.86 1075 -225 1075 C-225.27402004 1005.26626415 -225.52873344 935.53246897 -225.67749023 865.79833984 C-225.67969915 864.76549612 -225.68190806 863.7326524 -225.68418391 862.66851038 C-225.73207557 840.21954666 -225.77639775 817.77057722 -225.81704527 795.32159925 C-225.83700185 784.31189172 -225.85774683 773.30218574 -225.87890625 762.29248047 C-225.88099839 761.19690931 -225.88309054 760.10133814 -225.88524608 758.97256786 C-225.9533718 723.49127383 -226.07351042 688.01038873 -226.22075553 652.52934222 C-226.37185167 616.05389732 -226.47020737 579.57867853 -226.50263984 543.10292597 C-226.50725001 537.94555969 -226.51246019 532.78819418 -226.51803589 527.63082886 C-226.51911466 526.61583141 -226.52019342 525.60083396 -226.52130488 524.55507901 C-226.54017874 508.24649753 -226.61429516 491.93861724 -226.70931254 475.6303212 C-226.80375714 459.21648299 -226.83942632 442.80333666 -226.81602204 426.38923651 C-226.8038944 416.64853331 -226.83590657 406.91037137 -226.93276069 397.17012936 C-226.99316731 390.64677476 -226.99434174 384.12506633 -226.94930902 377.60159397 C-226.92535307 373.8939601 -226.92528057 370.19109586 -226.99813092 366.4839927 C-227.36521739 346.65395658 -223.50396788 334.09804943 -210.95979202 318.49741054 C-208.023726 314.75591034 -205.47530693 310.79025562 -202.91796875 306.78515625 C-201.97329493 305.34412907 -201.02706142 303.90412199 -200.07861328 302.46557617 C-199.60877014 301.75001556 -199.138927 301.03445496 -198.65484619 300.29721069 C-196.55596312 297.1006941 -194.45522167 293.90539992 -192.35467529 290.7099762 C-191.24525236 289.02223944 -190.13591814 287.33444437 -189.02667236 285.64659119 C-182.89893046 276.32284448 -176.76209828 267.0050896 -170.625 257.6875 C-169.49453807 255.97103487 -168.36408563 254.2545635 -167.23364258 252.53808594 C-163.25313881 246.49409718 -159.2724427 240.45023511 -155.29174805 234.40637207 C-138.52040532 208.94246279 -121.75617312 183.4738939 -105 158 C-100.87512723 151.72908297 -96.75016985 145.45822161 -92.625 139.1875 C-92.11241638 138.40831207 -91.59983276 137.62912415 -91.07171631 136.82632446 C-81.7488592 122.65487247 -72.42045843 108.48707458 -63.08862305 94.3215332 C-57.60467204 85.99640253 -52.12398242 77.66916653 -46.65234375 69.3359375 C-36.24825164 53.49313747 -25.81726192 37.668611 -15.31790161 21.88873291 C-14.15478415 20.14032599 -12.99240088 18.39143042 -11.83078003 16.64202881 C-10.22419358 14.22330541 -8.61453943 11.80665493 -7.00390625 9.390625 C-6.52494904 8.66861908 -6.04599182 7.94661316 -5.55252075 7.20272827 C-3.82642556 4.61952176 -2.20288355 2.20288355 0 0 Z M1 6 C0.1956807 7.07683988 -0.56048429 8.18965531 -1.29736328 9.3137207 C-1.77521271 10.03900467 -2.25306213 10.76428864 -2.74539185 11.5115509 C-3.26511566 12.30824692 -3.78483948 13.10494293 -4.3203125 13.92578125 C-4.85719696 14.74314255 -5.39408142 15.56050385 -5.94723511 16.40263367 C-7.67641555 19.03713476 -9.40065664 21.67483104 -11.125 24.3125 C-12.26532334 26.05032818 -13.40594475 27.78796083 -14.546875 29.52539062 C-24.70893802 42.2023134 -24.70893802 42.2023134 -31 56 C-26.30404171 55.55276588 -21.61677706 55.08626149 -16.9375 54.48828125 C-3.54442604 52.78560526 8.66188235 53.0473329 22.03515625 54.75634766 C26.01561301 55.24994803 30.00744817 55.61975697 34 56 C30.51570525 49.50314789 26.70240567 43.30215062 22.640625 37.15234375 C22.0507782 36.25504044 21.4609314 35.35773712 20.85321045 34.4332428 C19.61776569 32.55576273 18.38070463 30.67934532 17.14208984 28.80395508 C15.23680997 25.91751754 13.33883131 23.02637102 11.44140625 20.13476562 C10.23741131 18.30700693 9.03299949 16.47952276 7.828125 14.65234375 C7.25837952 13.78375229 6.68863403 12.91516083 6.10162354 12.02024841 C5.57727722 11.22844681 5.05293091 10.4366452 4.51269531 9.62084961 C4.05034485 8.91963486 3.58799438 8.2184201 3.1116333 7.49595642 C2.74479431 7.0022908 2.37795532 6.50862518 2 6 C1.67 6 1.34 6 1 6 Z " fill="#FFDCDE" transform="translate(320,31)"/>
<path d="M0 0 C1.89233398 0.07739258 1.89233398 0.07739258 4 1 C5.84399414 3.0534668 5.84399414 3.0534668 7.72265625 5.76171875 C8.42148926 6.76380371 9.12032227 7.76588867 9.84033203 8.79833984 C13.0278885 13.52382205 16.18766404 18.26430388 19.29077148 23.04577637 C20.91649639 25.55047262 22.54907071 28.05068321 24.18106079 30.55130005 C25.06595474 31.90727769 25.95053159 33.26346232 26.83480835 34.61984253 C32.19897388 42.84582451 37.6000932 51.04745653 43 59.25 C44.05853777 60.8584631 45.1170499 62.46694308 46.17553711 64.07543945 C55.08297382 77.61048243 63.99544303 91.14221277 72.90771484 104.67407227 C80.48321441 116.17652864 88.055561 127.68105447 95.625 139.1875 C96.13774475 139.96692963 96.6504895 140.74635925 97.17877197 141.54940796 C101.29993195 147.81411886 105.42084595 154.07899154 109.54174805 160.34387207 C126.35295558 185.90132521 143.17358231 211.45255849 160 237 C163.97735818 243.03879729 167.95465025 249.07763811 171.93179321 255.11657715 C173.05804017 256.82664237 174.18432175 258.53668479 175.31063843 260.2467041 C181.44162357 269.55503184 187.56993218 278.86510168 193.69140625 288.1796875 C194.78563354 289.84432689 195.87987172 291.50895912 196.97412109 293.17358398 C198.56971135 295.60087965 200.16506082 298.02833158 201.75958252 300.45632935 C206.83360046 308.1824247 211.91599004 315.90143855 217.08203125 323.56640625 C217.46683151 324.13841263 217.85163177 324.71041901 218.24809265 325.29975891 C219.99020674 327.88870545 221.73783356 330.47350657 223.49682617 333.05102539 C224.38011597 334.35994751 224.38011597 334.35994751 225.28125 335.6953125 C225.78720703 336.43797363 226.29316406 337.18063477 226.81445312 337.94580078 C228.93314904 341.61686904 229.12491493 344.99715189 229.1241985 349.18398738 C229.12756944 350.7692131 229.12756944 350.7692131 229.13100848 352.38646358 C229.12838146 353.54873205 229.12575445 354.71100051 229.12304783 355.90848923 C229.12420167 357.14730577 229.12535552 358.38612231 229.12654433 359.66247874 C229.12874359 363.11821432 229.12643161 366.57389484 229.12226619 370.02962519 C229.11883909 373.78263389 229.12120144 377.53563955 229.12284368 381.28864884 C229.12492029 387.87185194 229.12326875 394.45504601 229.11920547 401.03824806 C229.11318024 410.82728953 229.11286876 420.61632528 229.11374746 430.40536826 C229.11506265 446.87062717 229.11171507 463.33588208 229.10573006 479.80113983 C229.09981744 496.10894541 229.095965 512.41674932 229.09487724 528.72455597 C229.0948085 529.73770051 229.09473976 530.75084504 229.09466894 531.79469093 C229.09433062 536.93972793 229.09402923 542.08476492 229.09374207 547.22980192 C229.09164044 583.6927532 229.08489968 620.1557023 229.07543945 656.61865234 C229.06625832 692.04671212 229.05917309 727.4747713 229.05493164 762.90283203 C229.05480011 763.9944608 229.05466859 765.08608957 229.05453308 766.21079799 C229.05321458 777.17316485 229.05193876 788.13553172 229.05069422 799.09789859 C229.04815786 821.4304391 229.0453366 843.76297957 229.04234314 866.09552002 C229.04220585 867.12238326 229.04206856 868.14924651 229.04192711 869.20722682 C229.03272306 937.80481879 229.0168567 1006.40240954 229 1075 C221.74 1075 214.48 1075 207 1075 C207 840.37 207 605.74 207 364 C199.41 367.3 191.82 370.6 184 374 C178.89045201 375.57216861 174.1815702 376.95640507 169 378 C167.91976563 378.22171875 166.83953125 378.4434375 165.7265625 378.671875 C135.5794143 384.0735432 107.74537554 374.70909602 83 358 C81.90945313 357.27296875 80.81890625 356.5459375 79.6953125 355.796875 C78.36113281 354.90742187 78.36113281 354.90742187 77 354 C76.30777344 354.556875 75.61554688 355.11375 74.90234375 355.6875 C48.03799711 376.64098249 16.09445041 381.85895114 -17.38452148 378.22631836 C-38.50310024 375.5793682 -57.92179597 368.22448168 -74 354 C-74.49886719 354.3403125 -74.99773437 354.680625 -75.51171875 355.03125 C-77.99494239 356.70753741 -80.49590428 358.35505009 -83 360 C-83.95519531 360.63808594 -84.91039062 361.27617187 -85.89453125 361.93359375 C-101.17946206 371.79670005 -119.61931261 379.27205198 -138 380 C-139.60488281 380.07734375 -139.60488281 380.07734375 -141.2421875 380.15625 C-164.276388 380.74062718 -182.90064226 373.37749233 -204 364 C-204 598.63 -204 833.26 -204 1075 C-210.93 1075 -217.86 1075 -225 1075 C-225.27402004 1005.26626415 -225.52873344 935.53246897 -225.67749023 865.79833984 C-225.67969915 864.76549612 -225.68190806 863.7326524 -225.68418391 862.66851038 C-225.73207557 840.21954666 -225.77639775 817.77057722 -225.81704527 795.32159925 C-225.83700185 784.31189172 -225.85774683 773.30218574 -225.87890625 762.29248047 C-225.88099839 761.19690931 -225.88309054 760.10133814 -225.88524608 758.97256786 C-225.9533718 723.49127383 -226.07351042 688.01038873 -226.22075553 652.52934222 C-226.37185167 616.05389732 -226.47020737 579.57867853 -226.50263984 543.10292597 C-226.50725001 537.94555969 -226.51246019 532.78819418 -226.51803589 527.63082886 C-226.51911466 526.61583141 -226.52019342 525.60083396 -226.52130488 524.55507901 C-226.54017874 508.24649753 -226.61429516 491.93861724 -226.70931254 475.6303212 C-226.80375714 459.21648299 -226.83942632 442.80333666 -226.81602204 426.38923651 C-226.8038944 416.64853331 -226.83590657 406.91037137 -226.93276069 397.17012936 C-226.99316731 390.64677476 -226.99434174 384.12506633 -226.94930902 377.60159397 C-226.92535307 373.8939601 -226.92528057 370.19109586 -226.99813092 366.4839927 C-227.36521739 346.65395658 -223.50396788 334.09804943 -210.95979202 318.49741054 C-208.023726 314.75591034 -205.47530693 310.79025562 -202.91796875 306.78515625 C-201.97329493 305.34412907 -201.02706142 303.90412199 -200.07861328 302.46557617 C-199.60877014 301.75001556 -199.138927 301.03445496 -198.65484619 300.29721069 C-196.55596312 297.1006941 -194.45522167 293.90539992 -192.35467529 290.7099762 C-191.24525236 289.02223944 -190.13591814 287.33444437 -189.02667236 285.64659119 C-182.89893046 276.32284448 -176.76209828 267.0050896 -170.625 257.6875 C-169.49453807 255.97103487 -168.36408563 254.2545635 -167.23364258 252.53808594 C-163.25313881 246.49409718 -159.2724427 240.45023511 -155.29174805 234.40637207 C-138.52040532 208.94246279 -121.75617312 183.4738939 -105 158 C-100.87512723 151.72908297 -96.75016985 145.45822161 -92.625 139.1875 C-92.11241638 138.40831207 -91.59983276 137.62912415 -91.07171631 136.82632446 C-81.7488592 122.65487247 -72.42045843 108.48707458 -63.08862305 94.3215332 C-57.60467204 85.99640253 -52.12398242 77.66916653 -46.65234375 69.3359375 C-36.24825164 53.49313747 -25.81726192 37.668611 -15.31790161 21.88873291 C-14.15478415 20.14032599 -12.99240088 18.39143042 -11.83078003 16.64202881 C-10.22419358 14.22330541 -8.61453943 11.80665493 -7.00390625 9.390625 C-6.52494904 8.66861908 -6.04599182 7.94661316 -5.55252075 7.20272827 C-3.82642556 4.61952176 -2.20288355 2.20288355 0 0 Z M1 6 C0.1956807 7.07683988 -0.56048429 8.18965531 -1.29736328 9.3137207 C-1.77521271 10.03900467 -2.25306213 10.76428864 -2.74539185 11.5115509 C-3.26511566 12.30824692 -3.78483948 13.10494293 -4.3203125 13.92578125 C-4.85719696 14.74314255 -5.39408142 15.56050385 -5.94723511 16.40263367 C-7.67641555 19.03713476 -9.40065664 21.67483104 -11.125 24.3125 C-12.26532334 26.05032818 -13.40594475 27.78796083 -14.546875 29.52539062 C-24.70893802 42.2023134 -24.70893802 42.2023134 -31 56 C-26.30404171 55.55276588 -21.61677706 55.08626149 -16.9375 54.48828125 C-3.54442604 52.78560526 8.66188235 53.0473329 22.03515625 54.75634766 C26.01561301 55.24994803 30.00744817 55.61975697 34 56 C30.51570525 49.50314789 26.70240567 43.30215062 22.640625 37.15234375 C22.0507782 36.25504044 21.4609314 35.35773712 20.85321045 34.4332428 C19.61776569 32.55576273 18.38070463 30.67934532 17.14208984 28.80395508 C15.23680997 25.91751754 13.33883131 23.02637102 11.44140625 20.13476562 C10.23741131 18.30700693 9.03299949 16.47952276 7.828125 14.65234375 C7.25837952 13.78375229 6.68863403 12.91516083 6.10162354 12.02024841 C5.57727722 11.22844681 5.05293091 10.4366452 4.51269531 9.62084961 C4.05034485 8.91963486 3.58799438 8.2184201 3.1116333 7.49595642 C2.74479431 7.0022908 2.37795532 6.50862518 2 6 C1.67 6 1.34 6 1 6 Z M-25.23535156 74.30249023 C-27.32102989 77.12272678 -29.17906407 80.00288759 -31 83 C-32.05757438 84.59225645 -33.1186183 86.18221545 -34.18359375 87.76953125 C-35.27087006 89.44881389 -36.35534974 91.1299095 -37.4375 92.8125 C-38.7452416 94.83128143 -40.05390646 96.84946497 -41.36328125 98.8671875 C-41.71859924 99.41513474 -42.07391724 99.96308197 -42.44000244 100.52763367 C-47.62964202 108.52291951 -52.88232073 116.47694843 -58.125 124.4375 C-60.30229213 127.74465424 -62.4793081 131.05199021 -64.65625 134.359375 C-65.19388474 135.17614716 -65.73151947 135.99291931 -66.28544617 136.83444214 C-71.40568583 144.61416884 -76.51666035 152.39995611 -81.625 160.1875 C-88.87036633 171.23221526 -96.12027765 182.2739277 -103.375 193.3125 C-103.85243652 194.03896729 -104.32987305 194.76543457 -104.82177734 195.51391602 C-108.70042243 201.41560482 -112.57933022 207.31712095 -116.45825195 213.21862793 C-119.84729129 218.37483758 -123.23622663 223.53111555 -126.625 228.6875 C-127.10241638 229.41393707 -127.57983276 230.14037415 -128.07171631 230.88882446 C-134.45347883 240.59963318 -140.83172766 250.31273893 -147.20626831 260.02828979 C-148.49880764 261.99818279 -149.79149066 263.96798142 -151.08422852 265.93774414 C-151.51229294 266.58999466 -151.94035736 267.24224518 -152.38139343 267.91426086 C-153.25094497 269.2392059 -154.12050269 270.56414689 -154.99006653 271.88908386 C-157.27020594 275.36347266 -159.5498144 278.83820836 -161.82861328 282.31347656 C-164.25335777 286.01123823 -166.6790092 289.70840331 -169.10543823 293.40505981 C-170.0712279 294.87651102 -171.03682668 296.34808753 -172.00222778 297.8197937 C-177.26483837 305.84053231 -182.55177869 313.84358611 -187.8984375 321.80859375 C-188.36936325 322.51097168 -188.840289 323.21334961 -189.32548523 323.93701172 C-191.56388993 327.27480501 -193.80697968 330.60925635 -196.05883789 333.93798828 C-196.85059314 335.11609673 -197.64218804 336.29431296 -198.43359375 337.47265625 C-199.12509521 338.49625244 -199.81659668 339.51984863 -200.52905273 340.57446289 C-202.17284671 342.81223299 -202.17284671 342.81223299 -202 345 C-177.60833066 357.6285384 -150.92436532 368.20571854 -123.125 360 C-120.37196623 359.10037368 -117.684635 358.08579713 -115 357 C-114.29149902 356.71592285 -113.58299805 356.4318457 -112.85302734 356.13916016 C-102.19156827 351.74354183 -93.14613306 345.95605405 -84 339 C-82.77474058 338.07767412 -81.54421983 337.16229706 -80.30859375 336.25390625 C-79.75486084 335.84342041 -79.20112793 335.43293457 -78.63061523 335.01000977 C-77 334 -77 334 -73.6875 333.125 C-68.68262165 334.31259825 -66.25678901 337.0320354 -62.60546875 340.55078125 C-48.04192737 354.24094684 -27.94829396 361.0804027 -8.15234375 361.203125 C-7.41859024 361.20882507 -6.68483673 361.21452515 -5.92884827 361.22039795 C-4.38169774 361.22979221 -2.83452771 361.23635958 -1.28735352 361.24023438 C1.03211255 361.24987371 3.35066549 361.280922 5.66992188 361.3125 C28.50388012 361.47679613 50.00175404 354.86642412 66.7734375 339.05078125 C67.50820313 338.37402344 68.24296875 337.69726562 69 337 C69.61101562 336.41605469 70.22203125 335.83210938 70.8515625 335.23046875 C74.18084586 333.32369737 76.20908155 333.43939882 80 334 C83.06029113 335.6678174 85.71066817 337.77723231 88.4375 339.9375 C111.46096563 357.27303771 135.06475334 365.25415626 164.1875 361.4375 C178.57365997 358.47746996 192.11708367 351.84127281 205 345 C203.63289991 341.24289719 201.91474685 338.14319142 199.67578125 334.8359375 C198.98895264 333.8147583 198.30212402 332.7935791 197.59448242 331.74145508 C197.2245517 331.19582916 196.85462097 330.65020325 196.47348022 330.08804321 C194.4330136 327.07730501 192.40914647 324.05541596 190.3828125 321.03515625 C189.94952133 320.39017685 189.51623016 319.74519745 189.06980896 319.08067322 C183.8884494 311.36011607 178.78784375 303.58670939 173.6875 295.8125 C172.70615782 294.3175313 171.72479378 292.82257694 170.7434082 291.32763672 C168.30014323 287.60518694 165.85790055 283.88206759 163.41595459 280.15875244 C161.16983813 276.7343422 158.92281368 273.31052799 156.67578125 269.88671875 C154.08715427 265.9423294 151.49857782 261.99790701 148.91040039 258.05322266 C142.48599094 248.26198096 136.0566886 238.4739615 129.625 228.6875 C129.14774475 227.96130463 128.6704895 227.23510925 128.17877197 226.48690796 C124.7859935 221.32450966 121.39301905 216.16224018 118 211 C114.12486552 205.10425505 110.2498322 199.20844363 106.375 193.3125 C105.65787842 192.22134888 105.65787842 192.22134888 104.92626953 191.1081543 C98.58295573 181.45607719 92.24387401 171.8012365 85.90853882 162.1439209 C82.40980947 156.81101852 78.90978452 151.47896651 75.40948486 146.14709473 C74.447631 144.68188469 73.48584179 143.21663221 72.52410889 141.75134277 C70.98369375 139.40442724 69.44306588 137.05765151 67.90234375 134.7109375 C67.38304794 133.91988617 66.86375214 133.12883484 66.32872009 132.31381226 C63.69242238 128.29952201 61.05239624 124.28776188 58.4050293 120.28076172 C57.35589742 118.69242218 56.30682506 117.10404334 55.2578125 115.515625 C54.73989639 114.73152252 54.22198029 113.94742004 53.68836975 113.13955688 C50.53760538 108.36023203 47.42221007 103.55990861 44.33332825 98.7403717 C42.35189125 95.65410374 40.35445855 92.57838402 38.35446167 89.50411987 C37.4203148 88.05927145 36.49362099 86.6095731 35.57498169 85.15481567 C34.30727786 83.14876757 33.01444623 81.16126102 31.71484375 79.17578125 C31.17408707 78.29735565 31.17408707 78.29735565 30.62240601 77.40118408 C26.88113973 71.79875212 22.10919689 70.66696315 15.85424805 69.32519531 C10.84343142 68.75429396 5.85086454 68.77377989 0.8125 68.75 C-0.26064453 68.729375 -1.33378906 68.70875 -2.43945312 68.6875 C-14.87273244 68.43237059 -14.87273244 68.43237059 -25.23535156 74.30249023 Z " fill="#FE5662" transform="translate(320,31)"/>
<path d="M0 0 C3.21585549 0.71323078 3.21585549 0.71323078 6.56689453 0.93334961 C13.19381265 1.89908589 17.52074655 3.38408075 21.88745117 8.65307617 C25.75024194 13.86516567 29.13318816 19.37132477 32.52148438 24.89819336 C33.71343744 26.77054417 34.90937837 28.64036249 36.109375 30.50756836 C39.52946698 35.85515821 42.8751333 41.24656873 46.20898438 46.64819336 C47.98920854 49.51764929 49.77351118 52.38453761 51.56054688 55.24975586 C51.96408386 55.89703644 52.36762085 56.54431702 52.78338623 57.21121216 C56.49524894 63.14458442 60.362092 68.96826771 64.27148438 74.77319336 C65.84897193 77.12604596 67.42379739 79.48067327 68.99804688 81.83569336 C69.41233444 82.45525909 69.82662201 83.07482483 70.25346375 83.71316528 C75.59213486 91.70611139 80.86794125 99.74047167 86.14648438 107.77319336 C86.66993439 108.56961243 87.1933844 109.36603149 87.73269653 110.18658447 C89.8962581 113.47841047 92.05971199 116.77030714 94.22285461 120.06240845 C99.81265535 128.56891625 105.41125978 137.06961752 111.0105896 145.56985474 C123.3862563 164.35739454 135.75272607 183.15097553 148.11621094 201.9465332 C152.79419191 209.05815123 157.47279129 216.16936241 162.15133667 223.28060913 C164.72135817 227.18697535 167.29134134 231.0933668 169.86132812 234.99975586 C170.89892559 236.57690442 171.93652325 238.15405286 172.97412109 239.73120117 C182.38574219 254.03686523 191.79736328 268.3425293 201.20898438 282.64819336 C198.75641982 285.22865864 196.48088189 287.27912977 193.37304688 289.01538086 C192.64561279 289.42320801 191.91817871 289.83103516 191.16870117 290.2512207 C190.39824463 290.67097168 189.62778809 291.09072266 188.83398438 291.52319336 C188.03323486 291.96228027 187.23248535 292.40136719 186.4074707 292.85375977 C175.46447291 298.76918814 164.25084374 303.4417811 152.20898438 306.64819336 C151.13003906 306.94854492 150.05109375 307.24889648 148.93945312 307.55834961 C131.5225334 311.76108557 112.20851067 311.41544619 95.20898438 305.64819336 C94.50870117 305.41213379 93.80841797 305.17607422 93.08691406 304.93286133 C80.483356 300.52814782 68.91906665 294.07510151 59.08398438 284.96069336 C56.49197316 282.46128507 56.49197316 282.46128507 53.70898438 282.33569336 C51.25303282 283.62506793 50.08145989 284.71889342 48.20898438 286.71069336 C31.55528193 304.30365018 4.96758449 308.88636775 -18.10400391 309.59594727 C-42.82176219 310.07655787 -68.57475667 305.18336838 -87.22851562 287.77319336 C-87.99035156 287.01264648 -88.7521875 286.25209961 -89.53710938 285.46850586 C-92.12387533 283.37936732 -93.45924426 282.63792596 -96.79101562 282.64819336 C-99.4243288 284.25880992 -99.4243288 284.25880992 -101.91601562 286.64819336 C-111.75053 295.10587572 -121.73088579 300.24315707 -133.79101562 304.64819336 C-135.06332031 305.12772461 -135.06332031 305.12772461 -136.36132812 305.61694336 C-161.13155323 314.49516024 -190.42693081 310.47408997 -213.90771484 299.55639648 C-223.59180592 294.8863396 -233.02565465 289.90290744 -241.79101562 283.64819336 C-238.09019006 276.56260652 -233.76459002 269.94368648 -229.29849243 263.32495117 C-227.06767322 260.01767574 -224.84998792 256.70160064 -222.63085938 253.38647461 C-222.15891647 252.68197174 -221.68697357 251.97746887 -221.20072937 251.25161743 C-215.62122088 242.91484104 -210.11159754 234.53225808 -204.60351562 226.14819336 C-203.54248992 224.53376657 -202.4814547 222.91934604 -201.42041016 221.30493164 C-199.27583889 218.04149977 -197.13170227 214.77778279 -194.98779297 211.51391602 C-190.31620834 204.40252672 -185.63949077 197.29451458 -180.96273804 190.18652344 C-179.41102176 187.82810329 -177.8594318 185.46960006 -176.30786133 183.11108398 C-168.07042216 170.59000924 -159.82749903 158.07254955 -151.58355713 145.55575562 C-143.48239732 133.25563133 -135.3849524 120.95307176 -127.29101562 108.64819336 C-117.55554059 93.84793914 -107.81588538 79.05044335 -98.0703125 64.25683594 C-92.74491394 56.17267728 -87.42123117 48.08740668 -82.10385132 39.99797058 C-79.60281136 36.19326488 -77.1008461 32.38916809 -74.59881592 28.58511353 C-73.40243059 26.76557297 -72.20650079 24.9457328 -71.01104736 23.12557983 C-69.35552273 20.60501393 -67.69843701 18.08548104 -66.04101562 15.56616211 C-65.55168549 14.82023804 -65.06235535 14.07431396 -64.55819702 13.30578613 C-63.31201152 11.41331474 -62.05466782 9.52902659 -60.79101562 7.64819336 C-60.26016357 6.85026367 -59.72931152 6.05233398 -59.18237305 5.23022461 C-56.82222148 2.54663413 -53.46319304 2.19186283 -50.10351562 1.46069336 C-49.07967773 1.21416016 -49.07967773 1.21416016 -48.03515625 0.96264648 C-33.02053681 -2.53934691 -15.08447893 -3.32706161 0 0 Z M-47.02636719 15.95068359 C-49.11204551 18.77092014 -50.97007969 21.65108095 -52.79101562 24.64819336 C-53.84859 26.24044981 -54.90963392 27.83040881 -55.97460938 29.41772461 C-57.06188569 31.09700725 -58.14636537 32.77810286 -59.22851562 34.46069336 C-60.53625723 36.47947479 -61.84492208 38.49765833 -63.15429688 40.51538086 C-63.50961487 41.06332809 -63.86493286 41.61127533 -64.23101807 42.17582703 C-69.42065765 50.17111287 -74.67333635 58.12514179 -79.91601562 66.08569336 C-82.09330776 69.3928476 -84.27032372 72.70018357 -86.44726562 76.00756836 C-86.98490036 76.82434052 -87.5225351 77.64111267 -88.07646179 78.4826355 C-93.19670145 86.2623622 -98.30767597 94.04814947 -103.41601562 101.83569336 C-110.66138196 112.88040862 -117.91129328 123.92212105 -125.16601562 134.96069336 C-125.64345215 135.68716064 -126.12088867 136.41362793 -126.61279297 137.16210938 C-130.49143806 143.06379818 -134.37034585 148.96531431 -138.24926758 154.86682129 C-141.63830691 160.02303094 -145.02724225 165.17930891 -148.41601562 170.33569336 C-148.89343201 171.06213043 -149.37084839 171.7885675 -149.86273193 172.53701782 C-156.24449446 182.24782654 -162.62274329 191.96093229 -168.99728394 201.67648315 C-170.28982327 203.64637615 -171.58250629 205.61617478 -172.87524414 207.5859375 C-173.30330856 208.23818802 -173.73137299 208.89043854 -174.17240906 209.56245422 C-175.0419606 210.88739926 -175.91151832 212.21234025 -176.78108215 213.53727722 C-179.06122157 217.01166602 -181.34083003 220.48640172 -183.61962891 223.96166992 C-186.0443734 227.65943158 -188.47002483 231.35659667 -190.89645386 235.05325317 C-191.86224353 236.52470438 -192.82784231 237.99628089 -193.79324341 239.46798706 C-199.05585399 247.48872567 -204.34279431 255.49177947 -209.68945312 263.45678711 C-210.16037888 264.15916504 -210.63130463 264.86154297 -211.11650085 265.58520508 C-213.35490555 268.92299837 -215.5979953 272.25744971 -217.84985352 275.58618164 C-218.64160877 276.76429009 -219.43320367 277.94250632 -220.22460938 279.12084961 C-220.91611084 280.1444458 -221.6076123 281.16804199 -222.32006836 282.22265625 C-223.96386233 284.46042635 -223.96386233 284.46042635 -223.79101562 286.64819336 C-199.39934628 299.27673176 -172.71538094 309.8539119 -144.91601562 301.64819336 C-142.16298186 300.74856704 -139.47565062 299.73399048 -136.79101562 298.64819336 C-136.08251465 298.36411621 -135.37401367 298.08003906 -134.64404297 297.78735352 C-123.98258389 293.39173519 -114.93714869 287.60424741 -105.79101562 280.64819336 C-104.56575621 279.72586748 -103.33523545 278.81049042 -102.09960938 277.90209961 C-101.54587646 277.49161377 -100.99214355 277.08112793 -100.42163086 276.65820312 C-98.79101562 275.64819336 -98.79101562 275.64819336 -95.47851562 274.77319336 C-90.47363727 275.96079161 -88.04780464 278.68022876 -84.39648438 282.19897461 C-69.83294299 295.8891402 -49.73930959 302.72859606 -29.94335938 302.85131836 C-29.20960587 302.85701843 -28.47585236 302.86271851 -27.71986389 302.86859131 C-26.17271337 302.87798557 -24.62554333 302.88455294 -23.07836914 302.88842773 C-20.75890307 302.89806707 -18.44035013 302.92911536 -16.12109375 302.96069336 C6.7128645 303.12498949 28.21073842 296.51461748 44.98242188 280.69897461 C45.7171875 280.0222168 46.45195312 279.34545898 47.20898438 278.64819336 C47.82 278.06424805 48.43101562 277.48030273 49.06054688 276.87866211 C52.38983024 274.97189073 54.41806592 275.08759218 58.20898438 275.64819336 C61.2692755 277.31601076 63.91965254 279.42542567 66.64648438 281.58569336 C89.66995001 298.92123107 113.27373771 306.90234962 142.39648438 303.08569336 C156.78264435 300.12566332 170.32606805 293.48946617 183.20898438 286.64819336 C181.84188428 282.89109054 180.12373122 279.79138477 177.88476562 276.48413086 C177.19793701 275.46295166 176.5111084 274.44177246 175.8034668 273.38964844 C175.43353607 272.84402252 175.06360535 272.29839661 174.6824646 271.73623657 C172.64199797 268.72549837 170.61813085 265.70360932 168.59179688 262.68334961 C168.15850571 262.03837021 167.72521454 261.39339081 167.27879333 260.72886658 C162.09743378 253.00830943 156.99682812 245.23490275 151.89648438 237.46069336 C150.91514219 235.96572465 149.93377815 234.4707703 148.95239258 232.97583008 C146.50912761 229.2533803 144.06688493 225.53026095 141.62493896 221.8069458 C139.3788225 218.38253556 137.13179805 214.95872135 134.88476562 211.53491211 C132.29613864 207.59052276 129.70756219 203.64610036 127.11938477 199.70141602 C120.69497531 189.91017432 114.26567298 180.12215486 107.83398438 170.33569336 C107.35672913 169.60949799 106.87947388 168.88330261 106.38775635 168.13510132 C102.99497787 162.97270302 99.60200342 157.81043354 96.20898438 152.64819336 C92.33384989 146.7524484 88.45881657 140.85663699 84.58398438 134.96069336 C83.86686279 133.86954224 83.86686279 133.86954224 83.13525391 132.75634766 C76.79194011 123.10427055 70.45285839 113.44942986 64.11752319 103.79211426 C60.61879384 98.45921188 57.1187689 93.12715987 53.61846924 87.79528809 C52.65661537 86.33007805 51.69482617 84.86482557 50.73309326 83.39953613 C49.19267812 81.0526206 47.65205026 78.70584487 46.11132812 76.35913086 C45.59203232 75.56807953 45.07273651 74.7770282 44.53770447 73.96200562 C41.90140676 69.94771537 39.26138062 65.93595524 36.61401367 61.92895508 C35.5648818 60.34061554 34.51580943 58.7522367 33.46679688 57.16381836 C32.94888077 56.37971588 32.43096466 55.5956134 31.89735413 54.78775024 C28.74658976 50.00842539 25.63119445 45.20810197 22.54231262 40.38856506 C20.56087562 37.3022971 18.56344292 34.22657738 16.56344604 31.15231323 C15.62929918 29.70746481 14.70260537 28.25776646 13.78396606 26.80300903 C12.51626223 24.79696093 11.22343061 22.80945438 9.92382812 20.82397461 C9.38307144 19.94554901 9.38307144 19.94554901 8.83139038 19.04937744 C5.0901241 13.44694548 0.31818126 12.31515651 -5.93676758 10.97338867 C-10.9475842 10.40248732 -15.94015108 10.42197325 -20.97851562 10.39819336 C-22.05166016 10.37756836 -23.12480469 10.35694336 -24.23046875 10.33569336 C-36.66374806 10.08056395 -36.66374806 10.08056395 -47.02636719 15.95068359 Z " fill="#FE5763" transform="translate(341.791015625,89.351806640625)"/>
<path d="M0 0 C1.89233398 0.07739258 1.89233398 0.07739258 4 1 C5.84399414 3.0534668 5.84399414 3.0534668 7.72265625 5.76171875 C8.42148926 6.76380371 9.12032227 7.76588867 9.84033203 8.79833984 C13.0278885 13.52382205 16.18766404 18.26430388 19.29077148 23.04577637 C20.91649639 25.55047262 22.54907071 28.05068321 24.18106079 30.55130005 C25.06595474 31.90727769 25.95053159 33.26346232 26.83480835 34.61984253 C32.19897388 42.84582451 37.6000932 51.04745653 43 59.25 C44.05853777 60.8584631 45.1170499 62.46694308 46.17553711 64.07543945 C55.08297382 77.61048243 63.99544303 91.14221277 72.90771484 104.67407227 C80.48321441 116.17652864 88.055561 127.68105447 95.625 139.1875 C96.13774475 139.96692963 96.6504895 140.74635925 97.17877197 141.54940796 C101.29993195 147.81411886 105.42084595 154.07899154 109.54174805 160.34387207 C126.35295558 185.90132521 143.17358231 211.45255849 160 237 C163.97735818 243.03879729 167.95465025 249.07763811 171.93179321 255.11657715 C173.05804017 256.82664237 174.18432175 258.53668479 175.31063843 260.2467041 C181.44162357 269.55503184 187.56993218 278.86510168 193.69140625 288.1796875 C194.78563354 289.84432689 195.87987172 291.50895912 196.97412109 293.17358398 C198.56971135 295.60087965 200.16506082 298.02833158 201.75958252 300.45632935 C206.83360046 308.1824247 211.91599004 315.90143855 217.08203125 323.56640625 C217.46683151 324.13841263 217.85163177 324.71041901 218.24809265 325.29975891 C219.99020674 327.88870545 221.73783356 330.47350657 223.49682617 333.05102539 C224.38011597 334.35994751 224.38011597 334.35994751 225.28125 335.6953125 C225.78720703 336.43797363 226.29316406 337.18063477 226.81445312 337.94580078 C228.93314904 341.61686904 229.12491493 344.99715189 229.1241985 349.18398738 C229.12756944 350.7692131 229.12756944 350.7692131 229.13100848 352.38646358 C229.12838146 353.54873205 229.12575445 354.71100051 229.12304783 355.90848923 C229.12420167 357.14730577 229.12535552 358.38612231 229.12654433 359.66247874 C229.12874359 363.11821432 229.12643161 366.57389484 229.12226619 370.02962519 C229.11883909 373.78263389 229.12120144 377.53563955 229.12284368 381.28864884 C229.12492029 387.87185194 229.12326875 394.45504601 229.11920547 401.03824806 C229.11318024 410.82728953 229.11286876 420.61632528 229.11374746 430.40536826 C229.11506265 446.87062717 229.11171507 463.33588208 229.10573006 479.80113983 C229.09981744 496.10894541 229.095965 512.41674932 229.09487724 528.72455597 C229.0948085 529.73770051 229.09473976 530.75084504 229.09466894 531.79469093 C229.09433062 536.93972793 229.09402923 542.08476492 229.09374207 547.22980192 C229.09164044 583.6927532 229.08489968 620.1557023 229.07543945 656.61865234 C229.06625832 692.04671212 229.05917309 727.4747713 229.05493164 762.90283203 C229.05480011 763.9944608 229.05466859 765.08608957 229.05453308 766.21079799 C229.05321458 777.17316485 229.05193876 788.13553172 229.05069422 799.09789859 C229.04815786 821.4304391 229.0453366 843.76297957 229.04234314 866.09552002 C229.04220585 867.12238326 229.04206856 868.14924651 229.04192711 869.20722682 C229.03272306 937.80481879 229.01687747 1006.40240954 229 1075 C227.68 1075 226.36 1075 225 1075 C224.21492779 988.43688967 223.90137321 901.87287397 223.68359375 782.15625 C223.68085787 780.56833569 223.6781218 778.98042138 223.67538553 777.39250708 C223.60832913 738.42133238 223.54773907 699.45014841 223.48995765 660.47895896 C223.45252737 635.23401652 223.41325369 609.98907762 223.37231445 584.74414062 C223.37095192 583.9035564 223.36958939 583.06297217 223.36818558 582.19691569 C223.35449108 573.74945949 223.3407644 565.30200334 223.32701423 556.85454723 C223.29904597 539.67170855 223.27129139 522.48886952 223.2436676 505.30603027 C223.2423994 504.51733673 223.2411312 503.72864318 223.23982458 502.91604983 C223.15627925 450.94403879 223.07771756 398.97202004 223 347 C222.48444959 347.31916917 221.96889917 347.63833834 221.43772602 347.9671793 C219.07860891 349.42527756 216.71670767 350.87880564 214.35473633 352.33227539 C213.54377754 352.83443825 212.73281876 353.3366011 211.89728546 353.85398102 C206.33720296 357.26952703 200.83273639 360.20418462 194.6875 362.4375 C193.8519458 362.75477051 193.0163916 363.07204102 192.15551758 363.39892578 C189.77827365 364.29019157 187.39264949 365.15111403 185 366 C183.205625 366.64775391 183.205625 366.64775391 181.375 367.30859375 C156.00445218 375.79653438 127.21686461 374.18842887 103 363 C95.04956964 358.94632663 87.84311061 354.45875345 81.0859375 348.56640625 C78.91425475 346.93561078 77.72035004 346.08048373 75 346 C72.91110853 347.40667772 72.91110853 347.40667772 70.9375 349.5 C49.67688072 369.37330318 19.32974075 373.11922749 -8.58789062 372.1953125 C-31.37054022 370.89121121 -54.06670172 363.69679689 -70.3515625 347.1171875 C-71.9361801 345.80189963 -71.9361801 345.80189963 -73.9375 346.09765625 C-76.51124752 347.22367079 -78.25645833 348.71510274 -80.375 350.5625 C-89.53631884 358.01938743 -99.11940022 362.95465958 -110.1875 366.875 C-111.39768799 367.30437866 -111.39768799 367.30437866 -112.63232422 367.74243164 C-143.34910061 378.09231163 -174.97623399 371.00083481 -203.15917969 357.15527344 C-209.07917162 354.13680451 -214.31667427 350.61666183 -220 347 C-220 587.24 -220 827.48 -220 1075 C-221.65 1075 -223.3 1075 -225 1075 C-225.27435925 1005.26626623 -225.52873344 935.53246792 -225.67749023 865.79833984 C-225.67969915 864.76549612 -225.68190806 863.7326524 -225.68418391 862.66851038 C-225.73207557 840.21954666 -225.77639775 817.77057722 -225.81704527 795.32159925 C-225.83700185 784.31189172 -225.85774683 773.30218574 -225.87890625 762.29248047 C-225.88099839 761.19690931 -225.88309054 760.10133814 -225.88524608 758.97256786 C-225.9533718 723.49127383 -226.07351042 688.01038873 -226.22075553 652.52934222 C-226.37185167 616.05389732 -226.47020737 579.57867853 -226.50263984 543.10292597 C-226.50725001 537.94555969 -226.51246019 532.78819418 -226.51803589 527.63082886 C-226.51911466 526.61583141 -226.52019342 525.60083396 -226.52130488 524.55507901 C-226.54017874 508.24649753 -226.61429516 491.93861724 -226.70931254 475.6303212 C-226.80375714 459.21648299 -226.83942632 442.80333666 -226.81602204 426.38923651 C-226.8038944 416.64853331 -226.83590657 406.91037137 -226.93276069 397.17012936 C-226.99316731 390.64677476 -226.99434174 384.12506633 -226.94930902 377.60159397 C-226.92535307 373.8939601 -226.92528057 370.19109586 -226.99813092 366.4839927 C-227.36521739 346.65395658 -223.50396788 334.09804943 -210.95979202 318.49741054 C-208.023726 314.75591034 -205.47530693 310.79025562 -202.91796875 306.78515625 C-201.97329493 305.34412907 -201.02706142 303.90412199 -200.07861328 302.46557617 C-199.60877014 301.75001556 -199.138927 301.03445496 -198.65484619 300.29721069 C-196.55596312 297.1006941 -194.45522167 293.90539992 -192.35467529 290.7099762 C-191.24525236 289.02223944 -190.13591814 287.33444437 -189.02667236 285.64659119 C-182.89893046 276.32284448 -176.76209828 267.0050896 -170.625 257.6875 C-169.49453807 255.97103487 -168.36408563 254.2545635 -167.23364258 252.53808594 C-163.25313881 246.49409718 -159.2724427 240.45023511 -155.29174805 234.40637207 C-138.52040532 208.94246279 -121.75617312 183.4738939 -105 158 C-100.87512723 151.72908297 -96.75016985 145.45822161 -92.625 139.1875 C-92.11241638 138.40831207 -91.59983276 137.62912415 -91.07171631 136.82632446 C-81.7488592 122.65487247 -72.42045843 108.48707458 -63.08862305 94.3215332 C-57.60467204 85.99640253 -52.12398242 77.66916653 -46.65234375 69.3359375 C-36.24825164 53.49313747 -25.81726192 37.668611 -15.31790161 21.88873291 C-14.15478415 20.14032599 -12.99240088 18.39143042 -11.83078003 16.64202881 C-10.22419358 14.22330541 -8.61453943 11.80665493 -7.00390625 9.390625 C-6.52494904 8.66861908 -6.04599182 7.94661316 -5.55252075 7.20272827 C-3.82642556 4.61952176 -2.20288355 2.20288355 0 0 Z M1 6 C0.1956807 7.07683988 -0.56048429 8.18965531 -1.29736328 9.3137207 C-1.77521271 10.03900467 -2.25306213 10.76428864 -2.74539185 11.5115509 C-3.26511566 12.30824692 -3.78483948 13.10494293 -4.3203125 13.92578125 C-4.85719696 14.74314255 -5.39408142 15.56050385 -5.94723511 16.40263367 C-7.67641555 19.03713476 -9.40065664 21.67483104 -11.125 24.3125 C-12.26532334 26.05032818 -13.40594475 27.78796083 -14.546875 29.52539062 C-24.70893802 42.2023134 -24.70893802 42.2023134 -31 56 C-26.30404171 55.55276588 -21.61677706 55.08626149 -16.9375 54.48828125 C-3.54442604 52.78560526 8.66188235 53.0473329 22.03515625 54.75634766 C26.01561301 55.24994803 30.00744817 55.61975697 34 56 C30.51570525 49.50314789 26.70240567 43.30215062 22.640625 37.15234375 C22.0507782 36.25504044 21.4609314 35.35773712 20.85321045 34.4332428 C19.61776569 32.55576273 18.38070463 30.67934532 17.14208984 28.80395508 C15.23680997 25.91751754 13.33883131 23.02637102 11.44140625 20.13476562 C10.23741131 18.30700693 9.03299949 16.47952276 7.828125 14.65234375 C7.25837952 13.78375229 6.68863403 12.91516083 6.10162354 12.02024841 C5.57727722 11.22844681 5.05293091 10.4366452 4.51269531 9.62084961 C4.05034485 8.91963486 3.58799438 8.2184201 3.1116333 7.49595642 C2.74479431 7.0022908 2.37795532 6.50862518 2 6 C1.67 6 1.34 6 1 6 Z M-20.55322266 58.50268555 C-22.5782828 58.91428478 -24.62430497 59.22118195 -26.671875 59.5 C-27.68765625 59.665 -28.7034375 59.83 -29.75 60 C-30.77609375 60.144375 -31.8021875 60.28875 -32.859375 60.4375 C-37.90865517 62.94957969 -40.0408149 67.32208146 -43 72 C-43.75521317 73.14792568 -44.51349789 74.29383493 -45.27441406 75.43798828 C-47.46738764 78.73796466 -49.64196932 82.04960755 -51.81170654 85.36489868 C-53.81761357 88.4297697 -55.82700909 91.49234855 -57.83615112 94.55509949 C-58.90705812 96.1876497 -59.97779523 97.82031137 -61.04837036 99.45307922 C-66.57983487 107.88825603 -72.12775364 116.31256677 -77.67736816 124.73580933 C-80.53271573 129.06969804 -83.38746363 133.4039817 -86.2421875 137.73828125 C-86.80719971 138.5961171 -87.37221191 139.45395294 -87.9543457 140.33778381 C-93.80619621 149.22301919 -99.65333174 158.11135411 -105.5 167 C-114.16252118 180.1693989 -122.82963361 193.33576489 -131.5 206.5 C-143.30837125 224.42885991 -155.10931599 242.36259511 -166.90722656 260.29833984 C-171.58520753 267.40995787 -176.26380691 274.52116905 -180.94235229 281.63241577 C-183.5123738 285.53878199 -186.08235696 289.44517344 -188.65234375 293.3515625 C-189.68994122 294.92871106 -190.72753888 296.5058595 -191.76513672 298.08300781 C-192.29032898 298.88130005 -192.81552124 299.67959229 -193.35662842 300.5020752 C-202.23775228 314.00138346 -211.11887614 327.50069173 -220 341 C-217.56774027 343.55575715 -215.31325669 345.60831329 -212.234375 347.33203125 C-211.51741455 347.73470215 -210.8004541 348.13737305 -210.06176758 348.55224609 C-208.91744263 349.17607178 -208.91744263 349.17607178 -207.75 349.8125 C-206.95295654 350.24900879 -206.15591309 350.68551758 -205.3347168 351.13525391 C-192.9616136 357.81287951 -180.74650939 362.9339181 -167 366 C-166.26064209 366.17732666 -165.52128418 366.35465332 -164.75952148 366.53735352 C-158.08049135 368.03708178 -151.64486165 368.34920494 -144.8125 368.3125 C-143.71115723 368.30686035 -142.60981445 368.3012207 -141.47509766 368.29541016 C-127.16793108 368.08306279 -114.98581907 364.79117301 -102 359 C-101.08347656 358.5978125 -100.16695313 358.195625 -99.22265625 357.78125 C-91.2458895 354.05119794 -84.09468462 348.89292764 -77.625 342.9375 C-75 341 -75 341 -72.5625 340.75 C-70.00271695 341.99867466 -68.91266648 343.01824958 -67 345.0625 C-55.46225026 357.27746549 -38.90881987 362.48004419 -23 366 C-22.2059375 366.18820312 -21.411875 366.37640625 -20.59375 366.5703125 C7.47965929 371.22102789 39.2557724 367.41335951 63 351 C65.67907359 348.68761525 68.24178017 346.32038866 70.74609375 343.8203125 C73.32913316 341.73418362 74.67362418 340.99485877 78 341 C80.4375 342.58984375 80.4375 342.58984375 83 344.9375 C93.17235779 353.69551927 104.3077244 359.79034251 117 364 C117.63325195 364.21172852 118.26650391 364.42345703 118.91894531 364.64160156 C147.77440323 373.84210381 178.89472806 366.42062307 205.12890625 352.96020508 C211.33486079 349.67778796 217.26304937 346.04793857 223 342 C219.29917443 334.91441316 214.9735744 328.29549312 210.50747681 321.67675781 C208.27665759 318.36948238 206.05897229 315.05340728 203.83984375 311.73828125 C203.36790085 311.03377838 202.89595795 310.32927551 202.40971375 309.60342407 C196.83020525 301.26664768 191.32058192 292.88406472 185.8125 284.5 C184.7514743 282.88557321 183.69043907 281.27115269 182.62939453 279.65673828 C180.48482327 276.39330641 178.34068665 273.12958943 176.19677734 269.86572266 C171.52519271 262.75433336 166.84847514 255.64632122 162.17172241 248.53833008 C160.62000613 246.17990993 159.06841618 243.8214067 157.5168457 241.46289062 C149.27940654 228.94181588 141.03648341 216.42435619 132.7925415 203.90756226 C124.69138169 191.60743797 116.59393678 179.30487841 108.5 167 C97.08177947 149.64156951 85.6555387 132.28842872 74.22712708 114.93670654 C69.9387194 108.42555452 65.6509083 101.91400984 61.36328125 95.40234375 C59.4931481 92.56222246 57.62300895 89.72210512 55.75286865 86.88198853 C54.55008296 85.05532574 53.34732383 83.22864546 52.14459229 81.40194702 C50.48058688 78.87468451 48.81647685 76.34749092 47.15234375 73.8203125 C46.65785233 73.06922714 46.1633609 72.31814178 45.65388489 71.54429626 C45.19954575 70.85437088 44.7452066 70.1644455 44.27709961 69.45361328 C43.88332626 68.85557892 43.48955292 68.25754456 43.08384705 67.64138794 C40.3897575 63.44229707 40.3897575 63.44229707 35.96484375 61.6484375 C34.74958008 61.33132812 34.74958008 61.33132812 33.50976562 61.0078125 C32.66091797 60.79898438 31.81207031 60.59015625 30.9375 60.375 C30.11572266 60.1584375 29.29394531 59.941875 28.44726562 59.71875 C18.99236872 57.30853238 9.85776866 56.81865219 0.125 56.8125 C-0.88691406 56.80025391 -1.89882813 56.78800781 -2.94140625 56.77539062 C-8.99071704 56.76377223 -14.62530707 57.29526554 -20.55322266 58.50268555 Z " fill="#B40612" transform="translate(320,31)"/>
</svg>
